<?xml version="1.0" encoding="UTF-8" standalone="no"?>
<!-- Created with Inkscape (http://www.inkscape.org/) -->

<svg
   version="1.1"
   id="svg1"
   width="1261.3333"
   height="896"
   viewBox="0 0 1261.3333 896"
   sodipodi:docname="logo-logitrack-color.svg"
   inkscape:version="1.4 (e7c3feb100, 2024-10-09)"
   xmlns:inkscape="http://www.inkscape.org/namespaces/inkscape"
   xmlns:sodipodi="http://sodipodi.sourceforge.net/DTD/sodipodi-0.dtd"
   xmlns="http://www.w3.org/2000/svg"
   xmlns:svg="http://www.w3.org/2000/svg">
  <defs
     id="defs1" />
  <sodipodi:namedview
     id="namedview1"
     pagecolor="#ffffff"
     bordercolor="#000000"
     borderopacity="0.25"
     inkscape:showpageshadow="2"
     inkscape:pageopacity="0.0"
     inkscape:pagecheckerboard="0"
     inkscape:deskcolor="#d1d1d1"
     inkscape:zoom="4.9285714"
     inkscape:cx="1071.4058"
     inkscape:cy="826.6087"
     inkscape:window-width="1366"
     inkscape:window-height="761"
     inkscape:window-x="0"
     inkscape:window-y="28"
     inkscape:window-maximized="1"
     inkscape:current-layer="g1" />
  <g
     inkscape:groupmode="layer"
     inkscape:label="Image"
     id="g1">
    <path
       style="fill:#255d2e;fill-opacity:1"
       d="m 211.99999,892.11312 c -9.48338,-1.065 -22.14172,-4.85171 -23.48522,-7.02553 C 187.53184,883.49717 191.94568,868 193.38159,868 c 0.52767,0 3.22443,0.94639 5.99279,2.10309 12.38772,5.17591 28.9933,4.71038 37.4598,-1.05019 5.33323,-3.6287 8.21527,-9.15504 9.3575,-17.94311 l 0.83745,-6.44312 -3.84791,3.51445 c -6.90201,6.30389 -12.38537,8.26581 -23.18123,8.29413 -12.06479,0.0317 -20.10479,-3.31635 -27.42688,-11.42104 -7.51516,-8.31838 -9.84335,-14.71802 -9.87717,-27.15002 -0.0365,-13.41432 2.51547,-21.20884 9.56657,-29.21931 7.99621,-9.08418 14.08251,-11.73942 28.40414,-12.39175 11.2549,-0.51264 12.46229,-0.302 19.44521,3.39243 l 7.4452,3.93901 1.43898,-3.81229 C 250.37854,776.14962 250.77969,776 259.2175,776 h 8.78248 l 0.23338,37.66667 c 0.12836,20.71666 0.097,40.06666 -0.0697,43 -1.45211,25.55444 -23.02274,39.16826 -56.16368,35.44645 z m 23.15229,-55.28488 c 8.32938,-3.48024 10.18104,-7.52198 10.18104,-22.22286 0,-12.87464 -0.0497,-13.07681 -4.03925,-16.4338 -10.45631,-8.7984 -27.98126,-4.3312 -33.29026,8.48586 -2.43952,5.88953 -1.16718,18.63045 2.35436,23.57601 5.45699,7.66363 15.70945,10.3906 24.79411,6.59479 z m 677.9585,53.2428 c -10.28546,-2.25384 -15.7775,-4.68432 -15.7775,-6.98227 0,-1.05657 0.94862,-4.82128 2.10804,-8.36602 l 2.10804,-6.44497 7.19198,2.52778 c 10.63884,3.73925 26.76062,3.50576 32.60549,-0.47223 7.29043,-4.96182 9.75523,-9.3997 10.35751,-18.64875 l 0.54382,-8.35125 -3.50011,3.65449 c -13.19255,13.77443 -39.87918,10.95356 -51.62685,-5.45714 -5.36789,-7.49858 -8.27912,-19.06667 -7.33709,-29.1547 1.87036,-20.0292 13.37756,-32.9715 32.21583,-36.23358 8.07364,-1.39805 23.99803,-0.22839 27.5643,2.02462 0.97297,0.61468 6.71903,0.93163 12.76903,0.70433 l 11,-0.41328 v 38.70534 c 0,42.75013 -0.76373,49.03025 -7.11514,58.50749 -8.8429,13.19493 -31.08494,19.22589 -53.10735,14.40014 z m 25.63162,-52.7367 c 2.60835,-0.72461 6.50835,-3.15991 8.66667,-5.41179 3.63038,-3.78777 3.95724,-4.96144 4.3654,-15.67511 0.56167,-14.74312 -0.63403,-17.80139 -8.43659,-21.57854 -15.00634,-7.26445 -29.84582,1.60505 -31.07311,18.57227 -0.79526,10.99429 3.20704,19.37472 10.92731,22.88076 6.27252,2.84857 8.91812,3.05484 15.55032,1.21241 z m -828.27211,20.91022 c -9.92836,-4.17834 -14.12619,-7.6005 -20.05777,-16.35151 -5.613128,-8.28118 -7.148775,-15.4715 -5.979199,-27.99622 C 86.548874,791.24188 104.88231,776 130.01689,776 c 25.00951,0 41.26669,12.4376 45.95632,35.15903 3.9193,18.98913 -5.17598,37.98887 -22.11334,46.19407 -5.38946,2.61088 -9.08184,3.24001 -21.19321,3.61103 -13.04069,0.39949 -15.50143,0.098 -22.19637,-2.71957 z m 31.83594,-19.10789 c 6.40794,-4.78422 8.82186,-9.3185 9.42893,-17.71117 1.10333,-15.25327 -7.79758,-26.03441 -21.3255,-25.83033 -22.04235,0.33252 -29.81904,32.81852 -10.59829,44.27286 6.09499,3.63222 17.13089,3.27342 22.49486,-0.73136 z m 359.07578,20.6312 c -19.94782,-5.72332 -23.53108,-31.21136 -5.95491,-42.35784 8.07222,-5.11925 17.67189,-7.03606 32.57633,-6.50464 11.73865,0.41853 12.00259,0.36093 11.9996,-2.61897 -0.005,-4.49798 -3.95387,-9.73527 -8.89944,-11.80166 -6.12036,-2.55725 -18.78198,-2.25924 -28.17135,0.66307 l -7.97198,2.48115 -1.48014,-7.3702 c -2.01095,-10.01322 -2.24828,-9.39815 4.85318,-12.57766 4.91559,-2.20084 9.80558,-2.96578 21.84453,-3.41715 17.76399,-0.66602 26.32618,1.33335 33.79574,7.89172 7.96793,6.99593 9.23655,11.45714 10.00339,35.17764 l 0.68967,21.33334 3.99567,0.45364 c 5.06793,0.57538 5.9587,2.05099 5.98391,9.91269 0.0182,5.68739 -0.37062,6.53244 -3.64625,7.92386 -2.01666,0.85663 -7.05367,1.59178 -11.19335,1.63366 -8.17225,0.0827 -12.32003,-2.3118 -14.67488,-8.47168 l -1.22887,-3.2145 -4.28478,4.14692 c -2.35663,2.28081 -6.51551,5.07733 -9.24196,6.2145 -5.59004,2.33154 -21.64863,2.60964 -28.99411,0.50211 z m 30.11938,-16.60367 c 9.15783,-4.34567 13.13865,-14.634 6.94486,-17.94881 -4.09714,-2.19272 -18.6895,-0.76209 -24.05181,2.35804 -3.52214,2.0494 -4.47628,3.53094 -4.8066,7.46345 -0.36283,4.3195 0.1157,5.22829 3.99999,7.59648 5.34035,3.25592 11.7694,3.44644 17.91356,0.53084 z m 75.8319,16.30403 c -17.89602,-5.65976 -29.95866,-21.30492 -29.98697,-38.8929 -0.0328,-20.4047 10.2881,-35.56632 28.58982,-41.99886 14.04127,-4.93511 38.75397,-2.99633 46.24079,3.62772 2.24674,1.98783 1.77308,7.15986 -1.4264,15.57511 l -1.31194,3.45067 -6.17166,-2.73003 c -12.97843,-5.74097 -29.97671,-2.46858 -36.77577,7.07982 -4.54604,6.38432 -4.9611,18.62742 -0.87309,25.75357 6.13218,10.68953 19.91375,13.9898 35.91291,8.60007 4.46246,-1.50329 8.28201,-2.55329 8.48789,-2.33333 0.20588,0.21996 1.35559,3.69993 2.5549,7.73326 l 2.18057,7.33334 -3.30513,2.87406 c -1.81782,1.58073 -6.36709,3.53073 -10.10948,4.33333 -8.98492,1.92692 -27.32231,1.70809 -34.00644,-0.40583 z m 464.00001,0.61834 c -10.737,-2.61388 -20.5013,-11.15739 -25.68,-22.46913 -2.9936,-6.53887 -3.2675,-8.51845 -2.6911,-19.44864 1.0191,-19.32391 8.0309,-30.17535 24.3711,-37.71653 9.9848,-4.60814 25.2657,-5.17534 36.2936,-1.34716 9.3434,3.24341 19.2016,12.29386 23.0803,21.18898 4.6001,10.54982 5.1232,25.97179 1.231,36.29376 -3.8267,10.14802 -12.8648,19.44757 -21.8894,22.52255 -6.803,2.31804 -26.8842,2.88271 -34.7155,0.97617 z M 1098.6802,841 c 8.7815,-5.97665 12.5831,-14.94109 11.0572,-26.07364 -2.1908,-15.98337 -19.5298,-25.28914 -33.2973,-17.87047 -16.0073,8.62561 -16.2671,36.64364 -0.4136,44.6087 6.7164,3.37443 17.1697,3.06776 22.6537,-0.66459 z M 7.9999995,803.33333 V 746.66667 H 21.333332 34.666664 V 793.33333 840 h 23.403361 23.40336 l -0.264678,10 -0.264679,10 H 44.472014 7.9999995 Z M 285.33331,818.66667 v -41.33334 h 12.66667 12.66667 l 0.0182,38.33334 c 0.01,21.08333 0.38,39.68333 0.82218,41.33333 0.79496,2.9664 0.65288,3 -12.68487,3 h -13.48885 z m 74.66667,-4 v -45.33334 h -16 -16 V 758 746.66667 h 46.66666 46.66667 V 758 769.33333 l -17.66667,-7.8e-4 -17.66666,-7.8e-4 0.38379,45.33411 L 386.76756,860 h -13.38379 -13.38379 z m 64.31406,4.5828 0.3526,-40.75053 11.33333,-0.22166 11.33333,-0.22166 0.40302,6.97219 c 0.22165,3.8347 0.82165,6.97057 1.33333,6.96859 0.51168,-0.002 2.13032,-2.21387 3.59699,-4.91531 C 456.17531,780.61851 464.89979,776 473.5991,776 h 6.51304 l -0.38942,10.22501 -0.38942,10.22501 -4,0.4446 c -9.65747,1.07342 -12.8365,2.08712 -16.6753,5.31726 -7.98088,6.71546 -8.61084,9.36463 -8.27253,34.78812 l 0.30606,23 h -13.36505 -13.36505 z m 242.35258,-16.63284 v -57.38337 l 12.33334,0.38337 L 691.33329,746 v 33.54051 c 0,18.44729 0.47827,33.24441 1.06282,32.88249 0.58455,-0.36191 6.63989,-7.35514 13.45632,-15.54051 6.81643,-8.18537 13.31161,-15.64242 14.43374,-16.57123 2.04914,-1.69613 27.73602,-3.3347 27.6913,-1.76644 -0.0236,0.8275 -16.24597,21.3031 -26.07278,32.90863 l -5.74662,6.78678 4.92094,5.99876 c 4.49147,5.47521 20.09445,25.03445 26.03215,32.63279 L 749.5557,860 l -15.11121,-0.056 -15.1112,-0.056 -8.66667,-11.56958 c -4.76667,-6.36327 -10.91476,-14.88807 -13.66242,-18.94399 L 692.00844,822 l -0.004,19 -0.004,19 H 679.33377 666.6671 Z m 111.89074,54.43322 c 0.65779,-1.67742 4.28996,-10.54985 8.0715,-19.71652 3.78154,-9.16666 12.28293,-30.16666 18.89196,-46.66666 6.60904,-16.5 13.55248,-33.45 15.42986,-37.66667 l 3.41344,-7.66667 10.15124,0.0266 10.15125,0.0266 9.14648,22.97344 c 10.99542,27.61749 35.52019,90.64653 35.52019,91.28744 0,0.25107 -5.25,0.28313 -11.66667,0.0712 l -11.66667,-0.38525 -4.56359,-12.9385 -4.56359,-12.93849 -21.4364,-0.39484 c -11.79003,-0.21716 -22.15699,-0.19193 -23.0377,0.0561 -1.56897,0.4418 -3.19953,4.1465 -8.31079,18.88244 l -2.54362,7.33333 -12.09143,0.38319 -12.09144,0.38318 z m 70.62207,-43.1287 c 0.6246,-0.61184 -13.18987,-40.80078 -14.56336,-42.36765 -0.53669,-0.61225 -1.93747,1.48775 -3.11284,4.66666 -9.4613,25.58896 -13.76259,37.8788 -13.45581,38.44651 0.40618,0.75164 30.33531,0.0349 31.13201,-0.74552 z m 140.15384,5.41218 v -40.66666 h 10 10.00003 v 6.66666 c 0,3.66667 0.3183,6.66667 0.7074,6.66667 0.389,0 2.5781,-2.13065 4.8646,-4.73478 5.4879,-6.25039 10.3202,-8.59855 17.6951,-8.59855 h 6.0662 v 9.16822 9.16823 l -7.3464,0.60922 c -5.5948,0.46396 -8.5356,1.56266 -12.3334,4.6077 -7.7548,6.21783 -9.5254,13.12763 -9.5952,37.44663 L 1009.3333,860 h -10.00003 -10 z M 291.14265,769.34456 c -4.4488,-1.79531 -7.14267,-6.72737 -7.14267,-13.07713 0,-8.36429 5.37619,-13.60076 13.96365,-13.60076 7.83769,0 13.20308,2.76935 15.33443,7.9149 4.02554,9.71849 -3.14526,20.16141 -13.73371,20.00058 -3.0604,-0.0465 -6.85017,-0.6034 -8.4217,-1.23759 z M 978.6666,702.61234 c -4.03333,-0.54759 -10.78333,-1.44332 -15,-1.99051 -4.21666,-0.5472 -7.66666,-1.49555 -7.66666,-2.10746 0,-0.61191 1.95,-2.11765 4.33333,-3.3461 2.38333,-1.22845 10.2107,-6.04386 17.39414,-10.70091 L 990.78822,676 l 12.93918,-0.0416 c 59.1339,-0.19007 109.2045,-20.46695 146.9884,-59.52526 14.61,-15.10283 20.469,-22.32814 30.0598,-37.06965 15.5562,-23.91052 27.5997,-52.03881 35.7592,-83.51695 4.4465,-17.15405 9.4832,-43.60623 8.4918,-44.59768 -0.2625,-0.26242 -6.4366,2.51169 -13.7203,6.1647 -13.9932,7.01804 -38.448,15.53218 -56.9032,19.81135 -8.9477,2.07466 -32.2326,6.63307 -73.0698,14.30461 -34.8725,6.55102 -72.0005,20.80756 -96.00003,36.8624 -40.06497,26.80203 -65.8128,61.17912 -81.87215,109.3112 -7.06931,21.18767 -7.40231,20.75544 9.53882,12.38108 25.56644,-12.63804 58.10817,-30.86023 115.66666,-64.76911 18.3333,-10.80054 47.1722,-27.43716 64.0864,-36.97026 16.9141,-9.53311 33.2845,-18.93101 36.3787,-20.88424 l 5.6256,-3.55132 -3.6046,5.71202 c -24.0562,38.12 -55.388,67.46109 -107.9841,101.12297 -43.0347,27.54256 -80.06902,46.20066 -115.83533,58.35851 -27.08778,9.2078 -40.24869,11.41052 -68.66666,11.49262 -23.95288,0.0692 -25.10138,-0.054 -39.68946,-4.25679 -38.31361,-11.03811 -69.89423,-36.03481 -91.56282,-72.47384 -15.48136,-26.03424 -22.12507,-50.60655 -23.08757,-85.39127 -0.63144,-22.82027 -0.74125,-23.56763 -3.65811,-24.89664 -5.79102,-2.63856 -13.11861,-10.28286 -16.20028,-16.90049 -7.55295,-16.2193 -0.89038,-36.97872 14.36597,-44.76193 l 5.16562,-2.6353 v -31.97291 -31.9729 h -6.04283 c -10.86805,0 -22.13889,-7.23532 -27.43148,-17.60966 l -2.65053,-5.19547 -30.49338,0.40257 -30.49339,0.40256 -5.77752,4.05921 c -3.17765,2.23256 -7.27753,6.73256 -9.11087,10 -3.13361,5.58484 -3.35983,7.31392 -3.77554,28.85815 l -0.44221,22.91736 5.10888,2.63164 c 7.56274,3.89565 13.7733,10.6076 17.45759,18.86698 2.75154,6.16836 3.17602,8.81602 2.67202,16.66666 -0.37758,5.88155 -1.64635,11.37608 -3.43063,14.85674 -3.07868,6.00565 -12.48027,14.81391 -17.03086,15.95603 -2.50293,0.6282 -2.94076,1.94824 -3.63584,10.96187 -1.26977,16.46597 -7.83893,28.46558 -20.13991,36.78872 -13.56762,9.18018 -5.99889,8.76998 -161.81631,8.76998 H 246.41834 L 251.66691,561 c 9.62907,11.61916 17.66641,28.85059 17.66641,37.8754 v 3.79127 l 74.33332,0.14013 c 190.75477,0.3596 316.87939,1.21703 317.70676,2.15986 0.99236,1.13085 10.62656,24.90122 10.62656,26.21882 0,0.44798 -90.54156,0.81452 -201.20346,0.81452 H 269.59305 l -2.75777,9 c -7.49961,24.47498 -31.76193,46.34867 -59.41974,53.56984 -14.21885,3.7124 -36.42939,3.81054 -48.99708,0.2165 -26.98442,-7.71685 -47.99011,-27.25514 -57.12781,-53.13702 l -3.642105,-10.31599 -40.49094,-0.2852 C 34.887589,630.89126 14.680822,630.74126 12.25368,630.71479 l -4.4129854,-0.0481 0.5050016,-81 0.5050016,-81 L 19.107511,430 c 5.641247,-21.26667 14.451517,-55.30743 19.578377,-75.64613 5.12686,-20.3387 10.795336,-40.89492 12.596614,-45.68047 5.569391,-14.79651 16.003821,-28.5817 28.833631,-38.09283 18.63677,-13.81601 32.666997,-17.23395 70.776937,-17.24216 l 23.55975,-0.005 7.10692,-7.48801 c 22.75323,-23.97333 60.9568,-47.96997 101.78635,-63.93462 24.30516,-9.50349 61.52574,-18.65162 79.65389,-19.57744 l 9,-0.45964 v 183.78138 183.78138 l 76.33332,-0.38486 c 73.56635,-0.3709 76.49737,-0.48152 80.85864,-3.05152 7.81368,-4.60444 12.50678,-11.67962 13.18682,-19.88007 l 0.60037,-7.23964 -5.2472,-2.67692 c -15.23619,-7.77293 -22.77549,-27.50618 -16.99293,-44.47707 2.59714,-7.62218 9.96421,-16.34388 16.71408,-19.78741 l 5.16659,-2.63579 -0.23322,-24.98489 c -0.21585,-23.12382 -0.008,-25.55615 2.78699,-32.65432 5.70201,-14.47959 17.55264,-26.11039 32.70109,-32.09451 5.94296,-2.34765 10.7567,-2.75771 38.50401,-3.27994 l 31.71191,-0.59686 1.85956,-3.51295 c 2.79917,-5.28801 9.09375,-11.61566 14.18158,-14.25608 6.6236,-3.43745 21.91679,-4.1194 30.25701,-1.34923 7.23882,2.40435 17.14176,10.23218 20.21915,15.98234 l 1.8971,3.54476 60.18628,-0.38404 60.18628,-0.38405 4.75811,-3.63041 c 7.04744,-5.37716 10.36443,-13.26477 10.36443,-24.64601 0,-8.66803 -0.24372,-9.49673 -3,-10.20058 -5.17019,-1.32029 -12.61994,-8.5723 -16.21303,-15.78269 -8.37793,-16.81231 -1.20763,-38.27198 15.03588,-45.00027 l 4.17715,-1.73022 V 221.3121 c 0,-23.15852 7.07568,-37.73092 23.768,-48.9503 14.26024,-9.58471 17.10098,-10.07802 60.89866,-10.57546 21.26666,-0.24153 40.61666,-0.0755 42.99999,0.36901 l 4.33334,0.80817 v 13.85161 13.85162 l -42.33333,0.0293 c -38.30451,0.0265 -42.8409,0.26354 -47.66667,2.49077 -11.09024,5.11848 -15.33333,13.37098 -15.33333,29.82219 v 11.09455 l 6.84561,4.61494 c 4.62718,3.11938 8.19192,6.99143 11,11.94827 3.59728,6.34992 4.14249,8.58495 4.06563,16.66666 -0.129,13.56456 -5.97977,23.36785 -17.37295,29.10937 l -4.12838,2.08047 -0.80757,14.26064 c -0.90413,15.96573 -3.64223,23.44303 -12.27979,33.53408 -5.81102,6.78886 -18.39691,13.23787 -29.32255,15.02486 -4.4,0.71966 -32.75,1.31195 -62.99999,1.31619 -30.25,0.004 -55,0.49973 -55,1.10106 0,0.60134 -2.1,3.54671 -4.66667,6.54529 l -4.66666,5.45195 v 36.58555 36.58555 l 5.441,2.45354 c 12.12215,5.46633 20.90758,21.06268 19.50728,34.63032 -1.24045,12.01877 -7.76056,21.28369 -19.41798,27.59245 -4.07331,2.2044 -4.19686,2.53833 -4.19321,11.33334 0.0172,41.46507 16.3133,82.24544 44.44736,111.22772 20.94583,21.57734 43.6931,32.56885 70.64841,34.13742 12.04653,0.701 33.57078,-1.36666 36.48265,-3.5046 0.59818,-0.43919 2.52604,-6.49853 4.28414,-13.4652 11.95403,-47.36934 31.14018,-83.60408 60.36432,-114.00338 32.1877,-33.48201 65.27409,-52.65176 115.76934,-67.07497 19.3358,-5.52298 22.804,-6.29474 58.3333,-12.98057 l 19,-3.57538 v -23.65671 -23.65671 l -8.5957,-0.80268 c -25.0749,-2.34153 -51.8141,-17.93325 -66.821,-38.96356 -12.9547,-18.15441 -17.7836,-33.63728 -18.8604,-60.47285 l -0.7699,-19.1868 12.9274,0.92607 c 7.1101,0.50934 17.5457,2.08989 23.1902,3.51235 19.4852,4.91039 44.4066,19.96538 54.1303,32.70005 2.4423,3.1987 4.6713,5.5875 4.9532,5.30844 0.2819,-0.27907 0.3263,-7.4574 0.099,-15.95185 l -0.4139,-15.44445 -3.5861,-0.66832 c -32.3196,-6.02329 -53.8746,-17.53276 -69.9947,-37.37431 -8.7773,-10.80361 -13.9154,-21.34508 -17.7263,-36.36806 -3.1403,-12.37942 -3.1983,-13.69205 -3.1983,-72.32822 0,-32.84599 0.3727,-60.69125 0.8282,-61.87835 1.0806,-2.815986 7.4371,-6.059737 11.8748,-6.059737 2.093,0 5.0703,1.568201 7.3995,3.897436 l 3.8975,3.897436 v 45.375485 45.37548 l 5,0.83611 c 20.7611,3.47175 39.6952,13.18035 54.6666,28.03078 l 11,10.91108 v -9.66524 -9.66525 l -8.2376,-9.82999 c -8.7599,-10.45331 -15.679,-23.85803 -18.4587,-35.76073 -2.3562,-10.0898 -2.0633,-31.03932 0.5782,-41.35019 3.0177,-11.77918 12.2129,-28.480952 19.7506,-35.874091 l 6.299,-6.178316 0.034,-32.420988 c 0.021,-19.617722 0.5764,-33.4340079 1.4071,-34.9861997 1.9945,-3.7268018 8.6708,-6.7999725 12.6196,-5.808905 1.8418,0.4622683 4.847,2.6210341 6.6781,4.7972574 L 1144,10.871367 V 42.265724 73.66018 l 7.9452,8.493401 c 13.7785,14.729229 21.4154,35.318359 21.365,57.600249 -0.047,21.00977 -6.0251,37.74945 -19.7908,55.4223 l -8.186,10.50946 v 10.04609 c 0,5.52535 0.2402,9.7961 0.5338,9.49054 0.2936,-0.30555 2.9559,-3.78932 5.9163,-7.74169 6.5175,-8.7014 15.2073,-16.05566 26.088,-22.07856 8.9288,-4.94246 24.2839,-10.06864 30.1599,-10.06864 8.4272,0 7.9686,2.65205 7.9686,-46.07991 0,-29.74498 0.49,-45.536683 1.4804,-47.71032 2.9952,-6.573775 12.1859,-8.090699 18.1119,-2.989372 l 3.7411,3.220395 -0.025,59.112937 c -0.018,43.46817 -0.4982,61.75953 -1.8128,69.11294 -4.1049,22.96146 -15.6639,43.46482 -31.8158,56.43483 -15.9539,12.81098 -29.1597,18.59323 -50.6797,22.19031 l -9.6666,1.6158 0.03,18.21286 c 0.03,17.70355 0.091,18.09047 2.1876,13.83604 3.2316,-6.55645 20.0342,-21.52464 31.5022,-28.06288 5.5692,-3.17517 14.5105,-7.25942 19.8695,-9.0761 10.0593,-3.41004 37.5782,-7.09844 39.3876,-5.27917 2.1929,2.20481 0.6265,34.51227 -2.2041,45.46164 -3.6267,14.02871 -11.7645,30.25173 -19.6806,39.23394 -14.1484,16.05394 -36.5187,28.9376 -55.7836,32.12733 -5.1199,0.84771 -10.6589,1.79965 -12.3089,2.11542 -2.9583,0.56614 -3,0.86313 -3,21.36377 v 20.78965 l 5,-0.9377 c 8.8128,-1.65276 35.9068,-11.03669 45.4732,-15.74953 20.908,-10.30022 42.8099,-28.51499 53.2632,-44.29655 l 4.0387,-6.09737 0.9518,8.88773 c 1.6503,15.41025 -0.2447,63.57948 -3.2219,81.89665 -6.7106,41.28734 -20.3076,80.95011 -38.1867,111.39208 -35.0548,59.68602 -88.0912,98.80545 -153.3183,113.08706 -20.1861,4.41977 -60.79233,6.16476 -80.6667,3.46653 z m -773.51484,-38.4919 c 16.50896,-6.62005 28.00864,-18.99596 33.48941,-36.04118 9.49756,-29.53747 -9.27702,-61.85391 -40.6878,-70.03538 -27.49187,-7.16072 -53.62732,4.63808 -66.2935,29.92808 -4.12961,8.24541 -4.32654,9.33786 -4.32654,24 0,13.87529 0.34569,16.09894 3.5734,22.98546 6.66841,14.22746 19.4749,25.25269 35.49019,30.55383 10.19109,3.37331 28.51399,2.71575 38.75484,-1.39081 z m -33.81844,-24.66425 c -8.05875,-3.57157 -15.07616,-12.92518 -17.24715,-22.98898 -1.14073,-5.28795 1.99309,-17.62773 5.85365,-23.04938 4.95559,-6.95948 14.1405,-11.41688 23.3935,-11.35276 16.72591,0.11589 30.02508,13.52082 29.98697,30.22544 -0.015,6.57857 -4.80639,17.66932 -9.49537,21.97919 -7.27908,6.69054 -23.32029,9.25113 -32.4916,5.18649 z M 98.624721,593.70842 c 2.739889,-13.78434 11.030239,-28.7045 22.182979,-39.92275 7.53668,-7.58094 12.09817,-10.81553 22.14431,-15.70268 21.34679,-10.38461 22.71913,-10.50185 114.56941,-9.78741 43.73679,0.34019 81.38679,0.34476 83.66667,0.0101 l 4.14522,-0.60838 V 403.84867 280 l -111.66666,0.0144 c -122.2171,0.0158 -118.20968,-0.22662 -130.88741,7.91767 -9.095277,5.8429 -20.112579,18.0938 -20.112579,22.36457 0,1.36264 15.470549,1.70333 77.347339,1.70333 h 77.34735 l -0.34735,58.33333 -0.34735,58.33334 -54.66666,15.64524 c -77.70853,22.23966 -106.652763,30.38952 -117.333328,33.03766 -5.133333,1.27276 -13.683332,3.61518 -18.999998,5.20539 l -9.666666,2.89129 V 510.72313 536 h 19.216135 19.216135 l 0.713697,5 c 0.392534,2.75 0.495273,6.5 0.228308,8.33333 -0.266964,1.83334 -0.535389,5.88334 -0.5965,9 L 74.666662,564 H 55.33333 35.999998 v 19.33333 19.33334 H 66.422051 96.844104 Z M 1065.7882,567.33333 C 0,0 0,0 1065.7882,567.33333 Z M 704.01395,493.77964 C 715.98401,486.70875 711.13574,468 697.33329,468 c -10.40658,0 -16.12264,9.8233 -12.01015,20.63996 1.31359,3.45502 7.71651,7.20702 12.47109,7.30785 1.35352,0.0287 4.15239,-0.94697 6.21972,-2.16817 z M 565.39892,475.27395 c 1.44324,-1.30612 3.288,-4.59076 4.09947,-7.2992 4.2131,-14.06209 -15.18976,-25.0822 -24.13629,-13.70853 -5.60779,7.12916 -5.11926,14.18178 1.43648,20.73752 3.55277,3.55277 4.659,3.92058 9.98582,3.32017 3.29474,-0.37136 7.17128,-1.74385 8.61452,-3.04996 z M 66.105215,449.91739 c 11.675462,-3.34544 43.128115,-12.41461 69.894775,-20.15371 26.76667,-7.73911 54.3282,-15.69902 61.24785,-17.68869 l 12.58119,-3.61758 -0.35999,-34.56204 c -0.19799,-19.00912 -0.59075,-34.79326 -0.8728,-35.07587 -0.28205,-0.28262 -30.92073,-0.49874 -68.08596,-0.48028 -55.580065,0.0276 -67.748299,0.35545 -68.559998,1.84717 -1.04395,1.91855 -29.283618,112.38256 -29.283618,114.54759 0,1.86789 0.388674,1.78802 23.438551,-4.81659 z M 1117.3333,384.80711 c 0,-0.28942 -1.2592,-4.63942 -2.7983,-9.66666 -6.3364,-20.69821 -18.0026,-36.81638 -34.6648,-47.89339 -7.8748,-5.23516 -25.0003,-12.58039 -29.3313,-12.58039 -3.8463,0 1.7547,20.7563 8.9024,32.99107 4.9217,8.42439 16.6436,20.59449 25.0295,25.98636 9.0179,5.79827 32.8625,13.89801 32.8625,11.16301 z m 48.6145,-3.53791 c 27.5131,-11.45372 43.9642,-31.92181 50.6792,-63.05389 0.7926,-3.67485 0.6889,-3.7592 -3.5721,-2.90616 -2.4136,0.48319 -9.2053,3.14484 -15.0928,5.91478 -19.8181,9.32403 -37.1358,29.41928 -43.9545,51.0042 -1.8375,5.81691 -3.341,11.14522 -3.341,11.8407 0,2.30408 5.3964,1.31542 15.2812,-2.79963 z M 690.8125,360.73482 c 4.81936,-1.96795 7.08787,-12.02584 4.00963,-17.77758 -2.38889,-4.46368 -8.98808,-7.34796 -14.46232,-6.32098 -13.26733,2.48896 -15.09385,20.10041 -2.62826,25.3418 3.78974,1.59347 6.8452,1.30307 13.08095,-1.24324 z M 872.88095,276.6236 c 4.27095,-2.76103 6.46265,-10.43691 4.40113,-15.41387 -4.7885,-11.56047 -19.06009,-12.06183 -24.37742,-0.85638 -2.45576,5.17512 -1.73514,9.64108 2.27933,14.12579 5.13845,5.74037 11.03018,6.45431 17.69696,2.14446 z M 1115.1119,275 c 0.9225,-1.53057 -6.5017,-22.39294 -10.2213,-28.72271 -11.3906,-19.38344 -30.1251,-33.08592 -51.4276,-37.61418 l -4.5369,-0.96441 0.8284,7.15065 c 0.5196,4.4847 3.0686,11.68021 6.8369,19.29991 9.4792,19.16712 24.2679,31.42475 46.6725,38.68462 10.7056,3.46901 11.0273,3.52782 11.848,2.16612 z m 49.2124,-2.22953 c 24.1719,-8.53114 40.0783,-24.69288 48.2441,-49.01836 1.8873,-5.62226 3.4315,-11.54318 3.4315,-13.15761 0,-2.69426 -0.4532,-2.86284 -5.5191,-2.05278 -3.0355,0.4854 -9.9699,2.93891 -15.4096,5.45223 -11.6706,5.39215 -26.0759,18.49047 -33.159,30.15045 -5.3295,8.77335 -11.2456,23.79434 -11.2456,28.55271 0,4.18072 1.9898,4.19141 13.6577,0.0734 z M 345.33331,223.33333 c 0,-16.5 -0.26277,-30 -0.58393,-30 -6.63424,0 -45.77621,12.14962 -64.17386,19.91949 -24.35404,10.28543 -54.05807,27.67445 -66.50887,38.93494 -0.70783,0.64017 27.96909,1.14557 65,1.14557 h 66.26666 z m 793.26629,-47.22239 c 13.2602,-21.94651 15.3242,-40.7367 6.6877,-60.88487 C 1141.7862,107.05832 1134.3867,96 1132.4225,96 c -4.609,0 -15.4071,21.00641 -17.8634,34.75114 -2.7899,15.61078 1.2848,30.93193 13.009,48.91553 2.0319,3.11666 4.0914,5.66666 4.5768,5.66666 0.4853,0 3.3899,-4.15007 6.4547,-9.22239 z M 403.99997,330.86619 V 161.73238 l 210.99999,-0.058 c 116.04999,-0.0319 211.40133,0.18367 211.89187,0.47902 0.49054,0.29534 0.12472,2.18165 -0.81294,4.19178 -0.93765,2.01014 -3.69743,8.3048 -6.13284,13.98813 l -4.42802,10.33334 H 623.09234 430.66664 V 345.33333 500 h -13.33333 -13.33334 z"
       id="path16"
       sodipodi:nodetypes="sssssscssssssscsscssssssssssssscssscsssssscsssssssssssssssssssssssssscsscssssscssssscsssssssssssssscsssssscssssssssssssssssscccccccccccccccccssscccccccccccccccccccccccsssscccsssccccccccsssssscsscccssccccccsssscccssscccssscccssssssccccsssscccsssccccssssssssssscsssssssssssssscsssssssssscccsscccssscsssssssscsscsssscsssscsscccssssccssscccssscssscscsscsssscccssssscsssscccssscsssscssscsscccssssssssssscccssscssssccssssssscccsscccssssccssscccscscssssssssccssscccsssssssscssscsssssssssssssssssssssssssscccsssscccssscccccssscccccccssssssssssssssssscssssssscssssssssssssssssssssssssscsssssssssssssssssscscssssscccsssscccccccc" />
  </g>
  <path
     style="fill:#255d2e;fill-opacity:1;stroke-width:0.811594"
     d="m 286.08696,818.51389 v -41.00664 h 12.17391 12.17391 l 0.15781,38.14492 c 0.0868,20.97971 0.1781,39.33189 0.2029,40.78261 l 0.0451,2.63768 -12.37681,0.22404 -12.37681,0.22404 z"
     id="path23" />
  <path
     style="fill:#255d2e;fill-opacity:1;stroke-width:0.811594"
     d="m 292.36912,769.04288 c -4.17867,-1.49112 -5.16871,-2.45908 -6.74992,-6.5994 -1.6949,-4.43806 -1.22023,-10.95315 1.02082,-14.01118 5.43578,-7.41742 21.38912,-6.50114 25.5608,1.46808 3.45424,6.59869 0.58997,15.37793 -6.06878,18.60138 -4.01415,1.94321 -9.25613,2.14931 -13.76292,0.54112 z"
     id="path24" />
  <path
     style="fill:#255d2e;fill-opacity:1;stroke-width:0.811594"
     d="m 360.55754,814.23188 -0.20971,-45.24637 -16.02899,-0.22006 -16.02898,-0.22005 v -10.93937 -10.93936 h 46.26086 46.26087 v 10.95652 10.95652 h -17.49303 -17.49303 l 0.24666,45.44961 0.24665,45.44961 -12.77579,-3.4e-4 -12.7758,-3.3e-4 z"
     id="path25" />
  <path
     style="fill:#255d2e;fill-opacity:1;stroke-width:0.811594"
     d="m 205.82403,890.68702 c -7.42014,-1.60965 -15.22087,-4.32305 -16.35419,-5.68862 -0.76077,-0.91666 -0.67787,-2.34137 0.38169,-6.5595 0.74445,-2.96367 1.88068,-6.40786 2.52496,-7.65375 l 1.17141,-2.26526 7.11011,2.54316 c 6.42946,2.29971 8.04243,2.54675 16.84924,2.58063 11.88633,0.0457 16.75282,-1.36516 21.88508,-6.34496 4.10231,-3.98045 6.6224,-10.12834 7.43045,-18.12702 l 0.55761,-5.51953 -3.62546,3.32617 c -8.37601,7.68455 -18.08204,10.4917 -29.93344,8.65727 -14.87173,-2.30193 -27.26705,-14.09573 -29.98405,-28.52899 -1.8305,-9.72398 -0.50365,-21.88163 3.24543,-29.73711 2.73092,-5.72214 10.55255,-14.13786 15.4727,-16.64793 4.98353,-2.54241 13.1083,-3.99599 22.42414,-4.01184 8.26227,-0.014 8.30226,-0.004 15.20865,3.63809 3.80853,2.00869 7.09405,3.65217 7.30116,3.65217 0.2071,0 1.10354,-1.64348 1.99208,-3.65217 l 1.61553,-3.65218 h 8.0528 8.0528 l 0.55316,34.28986 c 0.33728,20.90767 0.23675,38.23621 -0.25758,44.40181 -0.72893,9.09157 -1.10266,10.70263 -3.70365,15.96537 -4.86706,9.84783 -14.46664,16.74168 -27.01552,19.40097 -6.92796,1.46813 -24.05006,1.43127 -30.95511,-0.0666 z m 31.49359,-54.56143 c 6.83644,-3.44548 7.72117,-5.78968 8.05546,-21.34396 0.2711,-12.61441 0.26756,-12.64349 -1.84503,-15.15416 -7.31787,-8.69679 -23.52547,-8.20647 -31.98177,0.96753 -4.25562,4.61681 -5.25747,8.05055 -4.84796,16.61588 0.25739,5.38346 0.80674,7.98597 2.32656,11.02181 5.04871,10.0848 17.21127,13.47783 28.29274,7.8929 z"
     id="path26" />
  <path
     style="fill:#255d2e;fill-opacity:1;stroke-width:0.811594"
     d="m 119.42338,860.24146 c -3.17948,-0.3791 -7.2528,-1.80861 -12.31684,-4.32254 -9.012117,-4.47384 -14.265896,-9.78465 -18.869436,-19.07425 -2.693573,-5.43543 -3.001555,-6.74854 -3.29471,-14.04727 -0.593345,-14.77256 2.859354,-24.78484 11.527447,-33.42777 9.377259,-9.35004 20.456319,-13.11067 36.631609,-12.43408 14.51685,0.60722 23.77979,4.38319 31.67668,12.91276 9.60274,10.37211 13.71494,25.8607 10.49393,39.52543 -2.80533,11.90128 -11.03252,22.24225 -21.74208,27.3282 -5.22707,2.48232 -7.0694,2.92119 -13.64167,3.24961 -4.17915,0.20884 -9.42454,0.48695 -11.65643,0.61802 -2.23188,0.13108 -6.19571,-0.0166 -8.8085,-0.32811 z m 21.25833,-19.92294 c 8.21194,-4.09219 12.12685,-12.35181 11.3042,-23.84946 -0.44944,-6.28156 -2.64649,-11.5636 -6.35618,-15.28125 -3.94192,-3.95037 -6.97562,-5.23131 -13.37251,-5.64637 -4.68422,-0.30393 -6.48121,-0.0406 -9.97261,1.46136 -11.26611,4.84655 -16.99297,20.55656 -11.91976,32.69845 1.76114,4.21501 6.69877,9.45961 10.56269,11.21937 5.15451,2.34755 14.40053,2.06573 19.75417,-0.6021 z"
     id="path27" />
  <path
     style="fill:#255d2e;fill-opacity:1;stroke-width:0.811594"
     d="M 8.5217391,803.07246 V 746.66667 H 21.507246 34.492754 V 793.33333 840 h 23.130434 23.130435 v 9.73913 9.73913 H 44.637681 8.5217391 Z"
     id="path28" />
  <path
     style="fill:#255d2e;fill-opacity:1;stroke-width:0.811594"
     d="m 424.74303,819.50725 c 0.1627,-21.98406 0.37472,-40.05756 0.47114,-40.16334 0.0964,-0.10578 4.93232,-0.43309 10.74643,-0.72735 l 10.57112,-0.53502 0.52231,3.16213 c 0.28727,1.73917 0.52633,4.31921 0.53124,5.73343 0.0105,3.03534 0.71078,5.13884 1.71066,5.13884 0.39406,0 2.03316,-1.98306 3.64244,-4.40681 4.94481,-7.44744 11.85045,-11.0123 21.33758,-11.01501 l 5.37622,-0.002 -0.24924,9.65294 -0.24925,9.65295 -4.62032,0.53744 c -11.36054,1.32148 -18.78892,5.49794 -22.24063,12.50436 -1.78407,3.62137 -1.86823,4.69909 -2.11656,27.10466 l -0.25862,23.33333 H 437.18237 424.4472 Z"
     id="path29" />
  <path
     style="fill:#255d2e;fill-opacity:1;stroke-width:0.811594"
     d="m 507.1265,860.24522 c -10.0934,-1.31574 -17.13469,-6.19009 -20.75073,-14.36475 -2.04176,-4.61575 -1.75514,-13.60557 0.58772,-18.43327 3.2955,-6.7907 10.75228,-11.96351 21.0621,-14.61089 3.30467,-0.84859 8.74761,-1.24211 17.18,-1.24211 6.78855,0 12.92051,-0.22168 13.62658,-0.49263 2.04171,-0.78347 1.62056,-5.93928 -0.77284,-9.46149 -1.13114,-1.66462 -3.59636,-3.8494 -5.47826,-4.85507 -3.05418,-1.63212 -4.55476,-1.82604 -13.97237,-1.80567 -8.69125,0.0188 -11.60512,0.35187 -16.53338,1.88982 -3.29045,1.02685 -6.27143,1.5644 -6.62439,1.19457 -0.98877,-1.03603 -2.74848,-12.816 -2.14816,-14.38039 0.82649,-2.1538 8.41692,-5.16685 15.42262,-6.12207 8.03342,-1.09534 24.14518,-1.11837 29.85949,-0.0427 6.06969,1.14259 12.1692,4.29918 16.56767,8.574 6.47955,6.29739 7.41844,10.28922 8.45989,35.96829 0.78432,19.33903 0.83152,19.52518 4.95708,19.54987 4.21194,0.0252 5.22758,1.6994 5.22758,8.61717 v 6.30261 l -2.79206,1.63873 c -2.22745,1.30734 -4.27899,1.64643 -10.14493,1.67677 -9.17836,0.0475 -11.77347,-1.16974 -14.66667,-6.87919 -1.12578,-2.22162 -2.26097,-4.03931 -2.52265,-4.03931 -0.26167,0 -2.33644,1.6729 -4.6106,3.71756 -5.74959,5.16938 -9.35929,6.79522 -17.0503,7.67962 -7.37194,0.8477 -7.78753,0.84549 -14.88339,-0.0795 z m 25.77104,-17.52532 c 7.4059,-4.0231 10.95122,-12.11426 7.28679,-16.62999 -1.44797,-1.78435 -2.10317,-1.91316 -9.53623,-1.87465 -14.84185,0.0769 -21.37274,3.66665 -21.37274,11.74774 0,3.51687 0.29184,4.172 2.63768,5.92112 3.92502,2.9266 6.99105,3.80182 12.11592,3.45857 3.08022,-0.20631 6.02144,-1.07614 8.86858,-2.62279 z"
     id="path30" />
  <path
     style="fill:#255d2e;fill-opacity:1;stroke-width:0.811594"
     d="m 614.37681,860.20758 c -17.73969,-1.85236 -33.42732,-16.74522 -36.13043,-34.29999 -1.50503,-9.7741 1.15852,-22.21001 6.55979,-30.62716 5.37892,-8.38232 16.29281,-15.55812 27.13586,-17.84161 11.29452,-2.37858 29.94293,-0.60165 37.33333,3.55733 2.80416,1.57805 3.28182,2.2576 3.50653,4.98864 0.1441,1.75141 -0.54383,5.66209 -1.54225,8.76718 -1.40382,4.36587 -2.0895,5.5085 -3.10073,5.16707 -0.71408,-0.24111 -3.85485,-1.35558 -6.97949,-2.4766 -15.73548,-5.64538 -33.8122,0.70198 -37.42876,13.14253 -1.76333,6.06562 -1.22096,15.58803 1.15037,20.19739 5.95876,11.58255 20.38977,14.80349 39.33259,8.77887 2.89972,-0.92223 4.9604,-1.19866 5.42204,-0.72732 0.40955,0.41816 1.57128,3.58303 2.58161,7.03303 l 1.83697,6.27274 -1.91442,2.0378 c -2.73527,2.91156 -9.54681,5.20548 -18.1484,6.11182 -8.39065,0.88411 -10.44696,0.87555 -19.61461,-0.0817 z"
     id="path31" />
  <path
     style="fill:#255d2e;fill-opacity:1;stroke-width:0.811594"
     d="m 666.72464,802.66667 v -56.8116 l 9.13043,0.009 c 5.02174,0.005 10.5,0.2353 12.17392,0.51198 l 3.04347,0.50306 0.009,29.71989 c 0.009,29.68091 0.33437,36.09822 1.80583,35.60773 0.42948,-0.14316 6.86207,-7.3594 14.29465,-16.0361 11.48299,-13.40511 13.94064,-15.86686 16.35435,-16.38167 4.27752,-0.91232 23.53623,-1.81114 23.53623,-1.09845 0,0.79503 -10.26477,13.90413 -22.16801,28.31067 l -9.28115,11.23301 16.13038,20.14913 c 8.87171,11.08201 16.13038,20.36194 16.13038,20.62206 0,0.26012 -6.35876,0.47294 -14.13059,0.47294 h -14.13058 l -8.87546,-11.97101 c -4.88151,-6.58406 -11.12275,-15.22478 -13.86942,-19.2016 l -4.99395,-7.23058 v 19.20159 19.2016 H 679.30441 666.7247 Z"
     id="path32" />
  <path
     style="fill:#255d2e;fill-opacity:1;stroke-width:0.811594"
     d="m 780.30472,854 c 1.27565,-3.01304 10.54265,-25.74783 20.59336,-50.52174 10.05069,-24.77391 19.4703,-47.87391 20.93246,-51.33333 l 2.65847,-6.28986 h 9.9022 9.90221 l 3.02138,7.50725 c 11.76527,29.23319 40.97506,104.35541 40.97506,105.38033 0,0.83657 -17.23583,0.86071 -20.2099,0.0283 -1.66967,-0.46733 -2.59361,-2.37512 -6.44625,-13.31041 l -4.49722,-12.76489 h -23.0187 -23.01871 l -1.85315,4.26087 c -1.01924,2.34348 -3.22361,8.14455 -4.8986,12.89128 -3.02715,8.57856 -3.06328,8.63335 -6.01523,9.1215 -1.63338,0.2701 -6.87959,0.49512 -11.65826,0.50003 l -8.68847,0.009 z m 68.61347,-40.07955 c 0.79148,-0.75525 -9.07917,-31.70924 -12.62904,-39.60422 -1.46567,-3.25966 -1.73602,-3.47806 -2.88418,-2.32989 -1.1535,1.15349 -9.53708,22.99651 -14.07012,36.65903 -1.53481,4.62588 -1.66003,5.70151 -0.73686,6.32971 1.41413,0.96231 29.22009,-0.005 30.3202,-1.05463 z"
     id="path33" />
  <path
     style="fill:#255d2e;fill-opacity:1;stroke-width:0.811594"
     d="m 916.41951,890.28018 c -5.60209,-0.94026 -14.42135,-3.73761 -16.56444,-5.25403 -1.00434,-0.71066 -1.82608,-1.87115 -1.82608,-2.57887 0,-1.19469 3.15454,-12.54015 3.62976,-13.05462 0.11712,-0.1268 3.45703,0.73413 7.42203,1.91317 5.60794,1.6676 9.10175,2.16696 15.73081,2.24834 10.83207,0.13298 15.13127,-1.07028 20.24212,-5.66537 4.91797,-4.42169 6.42495,-8.15664 7.09398,-17.58198 l 0.52914,-7.45455 -4.06167,3.64633 c -8.12368,7.29297 -17.49936,10.0548 -28.01304,8.2519 -15.64874,-2.68346 -26.07319,-13.04413 -29.53994,-29.3592 -1.43173,-6.73794 -1.4152,-11.19077 0.0675,-18.1898 4.48854,-21.18744 20.09573,-32.35422 43.42101,-31.06727 4.68695,0.2586 10.34782,1.03458 12.57971,1.72441 2.79227,0.86303 7.43269,1.25697 14.87773,1.26301 l 10.81977,0.009 -0.34943,39.97101 c -0.37914,43.3689 -0.64374,46.16216 -5.09183,53.75225 -4.81947,8.22381 -14.69685,14.60946 -26.40894,17.07317 -6.07008,1.27688 -18.0304,1.44895 -24.55823,0.35331 z m 24.62397,-53.63714 c 4.08223,-1.788 7.70705,-4.91676 9.35972,-8.07886 1.38775,-2.65522 2.40337,-16.88238 1.64085,-22.98543 -0.74301,-5.94688 -3.71128,-9.49813 -9.86258,-11.79963 -6.81118,-2.54838 -14.23876,-2.28012 -19.43791,0.70206 -6.92965,3.97477 -10.91747,11.7079 -10.91747,21.17099 0,17.67463 13.93362,27.68506 29.21739,20.99087 z"
     id="path34" />
  <path
     style="fill:#255d2e;fill-opacity:1;stroke-width:0.811594"
     d="m 989.73913,819.30435 v -40.17391 h 9.73913 9.73914 v 6.49275 c 0,4.2154 0.3159,6.49275 0.9006,6.49275 0.4954,0 2.9606,-2.136 5.4783,-4.74667 6.0243,-6.24674 8.832,-7.6167 16.5486,-8.07435 l 6.2899,-0.37304 v 8.91467 8.91467 l -6.111,0.46217 c -7.5845,0.57362 -12.2654,2.73496 -16.6083,7.66877 -5.3051,6.02689 -5.8649,8.9874 -6.2954,33.29175 l -0.3774,21.30435 h -9.6518 -9.65177 z"
     id="path35" />
</svg>
